# xmcd
#
# Track frame offsets: 
#        150
#        16170
#        31811
#        45625
#        64768
#        78724
#        93757
#        110185
#
# Disc length: 1685 seconds
#
# Revision: 2
# Processed by: cddbd v1.5.2PL0 Copyright (c) Steve Scherf et al.
# Submitted via: ExactAudioCopyFreeDBPlugin 1.0
#
DISCID=5d069308
DTITLE=George Strait - Cowboy Cut Collection
DYEAR=2005
DGENRE=Country
TTITLE0=Baby Blue
TTITLE1=Baby's Gotten Good at Goodbye
TTITLE2=Easy Come, Easy Go
TTITLE3=I Can Still Make Cheyenne
TTITLE4=Love Without End Amen
TTITLE5=One Night at a Time
TTITLE6=Write This Down
TTITLE7=I Found Jesus on the Jailhouse Floor
EXTD=MediaType: Audio CD Producer: Universal Music Group
EXTT0=
EXTT1=
EXTT2=
EXTT3=
EXTT4=
EXTT5=
EXTT6=
EXTT7=
PLAYORDER=
